{
	"asset":{
		"generator":"Khronos glTF Blender I/O v4.2.57",
		"version":"2.0"
	},
	"extensionsUsed":[
		"KHR_materials_specular",
		"KHR_materials_ior"
	],
	"scene":0,
	"scenes":[
		{
			"name":"Scene",
			"nodes":[
				0
			]
		}
	],
	"nodes":[
		{
			"mesh":0,
			"name":"Sandwich"
		}
	],
	"materials":[
		{
			"doubleSided":true,
			"extensions":{
				"KHR_materials_specular":{
					"specularFactor":0.20000000298023224
				},
				"KHR_materials_ior":{
					"ior":1.4500000476837158
				}
			},
			"name":"Sandwich ",
			"normalTexture":{
				"index":0
			},
			"pbrMetallicRoughness":{
				"baseColorTexture":{
					"index":1
				},
				"metallicFactor":0,
				"metallicRoughnessTexture":{
					"index":2
				}
			}
		}
	],
	"meshes":[
		{
			"name":"mesh.001",
			"primitives":[
				{
					"attributes":{
						"POSITION":0,
						"NORMAL":1,
						"TEXCOORD_0":2
					},
					"indices":3,
					"material":0
				}
			]
		}
	],
	"textures":[
		{
			"sampler":0,
			"source":0
		},
		{
			"sampler":0,
			"source":1
		},
		{
			"sampler":0,
			"source":2
		}
	],
	"images":[
		{
			"mimeType":"image/jpeg",
			"name":"Sandwich_normal_2k final",
			"uri":"textures/Sandwich_normal_2k%20final.jpg"
		},
		{
			"mimeType":"image/jpeg",
			"name":"Sandwich_color_2k",
			"uri":"textures/Sandwich_color_2k.jpg"
		},
		{
			"mimeType":"image/png",
			"name":"Roughness sandwich 2k final",
			"uri":"textures/Roughness%20sandwich%202k%20final.png"
		}
	],
	"accessors":[
		{
			"bufferView":0,
			"componentType":5126,
			"count":3356,
			"max":[
				3.6662659645080566,
				3.226322650909424,
				5.917675971984863
			],
			"min":[
				-6.0775370597839355,
				-0.6992988586425781,
				-3.9549665451049805
			],
			"type":"VEC3"
		},
		{
			"bufferView":1,
			"componentType":5126,
			"count":3356,
			"type":"VEC3"
		},
		{
			"bufferView":2,
			"componentType":5126,
			"count":3356,
			"type":"VEC2"
		},
		{
			"bufferView":3,
			"componentType":5123,
			"count":18756,
			"type":"SCALAR"
		}
	],
	"bufferViews":[
		{
			"buffer":0,
			"byteLength":40272,
			"byteOffset":0,
			"target":34962
		},
		{
			"buffer":0,
			"byteLength":40272,
			"byteOffset":40272,
			"target":34962
		},
		{
			"buffer":0,
			"byteLength":26848,
			"byteOffset":80544,
			"target":34962
		},
		{
			"buffer":0,
			"byteLength":37512,
			"byteOffset":107392,
			"target":34963
		}
	],
	"samplers":[
		{
			"magFilter":9729,
			"minFilter":9987
		}
	],
	"buffers":[
		{
			"byteLength":144904,
			"uri":"Henry.bin"
		}
	]
}
